<svg xmlns="http://www.w3.org/2000/svg" viewBox="0 0 960 960"><defs><style>.cls-1{fill:none;stroke:#000000;stroke-miterlimit:10;stroke-width:20px;}text{font-size:258px;text-anchor:middle;}</style></defs><g><path class="cls-1" d="M876.83,760H700.33V142H700V72.85a10,10,0,0,0-10-10H580a10,10,0,0,0-10,10V142H389V73a10,10,0,0,0-10-10H269a10,10,0,0,0-10,10v78h.31V760H82.83a10,10,0,0,0-10,10V893a10,10,0,0,0,10,10h794a10,10,0,0,0,10-10V770A10,10,0,0,0,876.83,760Z"/><text x="480" y="520">3</text></g></svg>
