<?xml version="1.0" encoding="utf-8"?>
<svg version="1.1" id="Layer_1" xmlns="http://www.w3.org/2000/svg" xmlns:xlink="http://www.w3.org/1999/xlink" x="0px" y="0px"
	 viewBox="0 0 960 960" style="enable-background:new 0 0 960 960;" xml:space="preserve">
<style type="text/css">
	.st0{fill:none;}
	.st1{font-family:'Helvetica-Bold';}
	.st2{font-size:28px;}
</style>
<g>
	<path class="st0" d="M905,788.4V511.6c-13.2-24.2-29.9-46.7-49.9-66.7C800.3,390.2,727.5,360,650,360s-150.3,30.2-205.1,84.9
		S360,572.5,360,650s30.2,150.3,84.9,205.1c20,20,42.5,36.8,66.7,49.9h276.7c24.2-13.2,46.7-29.9,66.7-49.9
		C875.1,835,891.8,812.6,905,788.4z"/>
	<path class="st0" d="M650,940c18.3,0,36.3-1.7,54-5H596C613.7,938.3,631.7,940,650,940z"/>
	<path class="st0" d="M826.4,905H890c8.3,0,15-6.7,15-15v-63.6c-10.5,15.2-22.5,29.5-35.8,42.8C855.9,882.5,841.5,894.5,826.4,905z"
		/>
	<path class="st0" d="M340,650c0-82.8,32.2-160.7,90.8-219.2C489.3,372.2,567.2,340,650,340s160.7,32.2,219.2,90.8
		c13.3,13.3,25.3,27.7,35.8,42.8V50c0-8.3-6.7-15-15-15H50c-8.3,0-15,6.7-15,15v840c0,8.3,6.7,15,15,15h423.6
		c-15.2-10.5-29.5-22.5-42.8-35.8C372.2,810.7,340,732.8,340,650z"/>
	<path class="st0" d="M940,650c0-18.3-1.7-36.3-5-54V704C938.3,686.3,940,668.3,940,650z"/>
</g>
<path d="M935,527.7V50c0-24.8-20.2-45-45-45H50C25.2,5,5,25.2,5,50v840c0,24.8,20.2,45,45,45h477.7c38.1,16.4,79.6,25,122.3,25
	s84.2-8.6,122.3-25H890c24.8,0,45-20.2,45-45V772.3c16.4-38.1,25-79.6,25-122.3S951.4,565.8,935,527.7z M130,905V390h130v515H130z
	 M260,370H130V140h130V370z M130,120V35h130v85H130z M35,890V50c0-8.3,6.7-15,15-15h60v85v270v515H50C41.7,905,35,898.3,35,890z
	 M280,905V390V120V35h610c8.3,0,15,6.7,15,15v423.6c-10.5-15.2-22.5-29.5-35.8-42.8C810.7,372.2,732.8,340,650,340
	s-160.7,32.2-219.2,90.8C372.2,489.3,340,567.2,340,650s32.2,160.7,90.8,219.2c13.3,13.3,27.7,25.3,42.8,35.8H280z M905,890
	c0,8.3-6.7,15-15,15h-63.6c15.2-10.5,29.5-22.5,42.8-35.8c13.3-13.3,25.3-27.7,35.8-42.8V890z M905,788.4
	c-13.2,24.2-29.9,46.7-49.9,66.7c-20,20-42.5,36.8-66.7,49.9c-26.3,14.3-54.8,24.5-84.4,30c-17.6,3.3-35.6,5-54,5s-36.3-1.7-54-5
	c-29.7-5.5-58.1-15.7-84.4-30c-24.2-13.2-46.7-29.9-66.7-49.9C390.2,800.3,360,727.5,360,650s30.2-150.3,84.9-205.1
	S572.5,360,650,360s150.3,30.2,205.1,84.9c20,20,36.8,42.5,49.9,66.7c14.3,26.3,24.5,54.8,30,84.4c3.3,17.6,5,35.6,5,54
	s-1.7,36.3-5,54C929.5,733.6,919.3,762,905,788.4z"/>
<text transform="matrix(1 0 0 1 145 90)" class="st1 st2">SRT323</text>
</svg>
