<?xml version="1.0" standalone="no"?>
<!DOCTYPE svg PUBLIC "-//W3C//DTD SVG 20010904//EN"
 "http://www.w3.org/TR/2001/REC-SVG-20010904/DTD/svg10.dtd">
<svg version="1.0" xmlns="http://www.w3.org/2000/svg"
 width="222.000000pt" height="69.000000pt" viewBox="0 0 222.000000 69.000000"
 preserveAspectRatio="xMidYMid meet">
<g transform="translate(0.000000,69.000000) scale(0.100000,-0.100000)"
fill="#000000" stroke="none">
<path d="M1740 612 c0 -4 5 -13 11 -19 7 -7 9 -25 5 -47 -8 -42 -21 -45 -83
-16 -48 21 -56 11 -20 -28 l22 -25 -22 12 c-19 9 -23 9 -23 -2 0 -8 16 -22 35
-33 19 -10 35 -22 35 -26 0 -5 18 -8 39 -8 45 0 91 32 116 82 19 39 19 41 -4
28 -27 -14 -28 -14 -23 19 3 20 -3 34 -19 50 -22 20 -69 29 -69 13z"/>
<path d="M212 379 c-38 -11 -68 -54 -77 -111 -10 -56 12 -78 79 -78 102 0 102
-35 0 -42 -50 -3 -69 -10 -97 -34 -20 -16 -36 -32 -36 -36 -1 -5 56 -8 127 -8
102 0 132 3 151 16 29 20 51 72 51 118 0 47 -29 66 -97 66 -39 0 -53 4 -53 14
0 18 22 26 74 26 31 0 53 7 79 28 60 45 50 52 -65 51 -57 0 -118 -5 -136 -10z"/>
<path d="M476 373 c-17 -57 -76 -283 -76 -292 0 -7 38 -11 118 -11 116 0 118
0 155 31 20 17 37 35 37 40 0 5 -34 9 -76 9 -65 0 -75 2 -70 16 3 9 6 18 6 20
0 2 18 4 40 4 30 0 48 7 75 31 19 17 35 35 35 39 0 4 -29 5 -65 2 -66 -5 -72
-2 -59 32 4 12 20 16 55 16 40 0 54 5 84 31 19 17 35 35 35 40 0 5 -65 9 -144
9 -129 0 -145 -2 -150 -17z"/>
<path d="M833 379 c-43 -12 -59 -38 -88 -145 -43 -153 -35 -164 106 -164 94 0
95 0 127 33 18 18 32 36 32 40 0 4 -31 7 -70 7 -79 0 -78 -2 -54 81 21 72 29
79 80 79 34 0 51 7 79 31 19 17 35 35 35 40 0 12 -206 10 -247 -2z"/>
<path d="M1090 348 c-6 -24 -20 -75 -31 -114 -25 -92 -25 -140 0 -154 11 -5
76 -10 145 -10 123 0 126 1 155 28 25 22 37 51 66 154 19 71 35 131 35 134 0
6 -142 -3 -145 -9 -1 -1 -14 -51 -31 -112 -29 -110 -29 -110 -61 -113 -41 -4
-41 1 -8 128 14 52 25 98 25 103 0 4 -31 7 -70 7 l-69 0 -11 -42z"/>
<path d="M1481 353 c-5 -21 -24 -90 -40 -153 -17 -63 -31 -118 -31 -122 0 -5
31 -8 70 -8 l69 0 9 32 8 32 23 -32 c22 -31 25 -32 97 -32 41 0 74 3 74 6 0 3
-16 26 -36 52 l-35 47 30 7 c35 10 62 46 80 105 20 73 -12 103 -110 103 -50 0
-65 -13 -29 -25 17 -5 22 -15 22 -45 1 -3 -2 -18 -6 -33 -6 -26 -5 -27 14 -17
11 6 20 8 20 4 0 -17 -36 -63 -60 -78 -31 -18 -80 -22 -80 -6 0 6 -10 10 -23
10 -13 0 -32 7 -43 15 -19 14 -18 14 4 15 28 0 28 12 0 25 -46 21 -28 32 24
14 63 -21 77 -14 85 50 8 57 -7 71 -73 71 -53 0 -53 0 -63 -37z"/>
<path d="M1845 378 c-11 -32 -75 -286 -75 -296 0 -9 33 -12 117 -12 109 0 118
2 150 26 54 41 45 54 -38 54 -62 0 -70 2 -67 18 2 12 16 18 50 22 31 4 56 14
73 30 40 38 33 47 -35 42 -60 -4 -67 -1 -54 32 4 12 20 16 55 16 40 0 54 5 84
31 19 17 35 35 35 40 0 15 -290 11 -295 -3z"/>
</g>
</svg>
