<?xml version="1.0" encoding="utf-8"?>
<svg viewBox="0 0 960 960" xmlns="http://www.w3.org/2000/svg">
    <defs>
        <pattern id="pattern-0" x="0" y="0" width="20" height="20" patternUnits="userSpaceOnUse" viewBox="0 0 100 100">
            <path d="M 0 0 L 50 0 L 50 100 L 0 100 Z" style="fill: black;"/>
        </pattern>
    </defs>
    <g id="#ffffffff">
        <path opacity="1.00"
              d=" M 0.00 0.00 L 500.00 0.00 L 500.00 500.00 L 0.00 500.00 L 0.00 0.00 M 190.00 45.86 C 189.99 45.14 189.98 43.70 189.98 42.98 C 189.29 42.98 187.91 42.98 187.22 42.99 C 186.95 44.19 186.80 46.39 185.03 46.22 C 164.33 47.71 143.61 49.18 122.90 50.68 C 121.37 50.91 119.85 50.62 118.41 50.13 C 115.23 51.75 111.58 51.40 108.13 51.75 C 99.83 52.23 91.54 53.11 83.23 53.39 C 79.48 56.05 76.58 59.81 75.38 64.29 C 75.44 69.86 74.81 75.40 74.58 80.97 C 72.53 113.27 71.43 145.64 71.22 178.01 C 70.35 200.66 71.20 223.34 71.18 246.01 C 71.59 305.64 73.31 365.26 73.41 424.90 C 73.74 430.15 76.53 435.26 81.32 437.68 C 91.22 438.37 101.09 439.57 110.97 440.49 C 112.51 440.52 113.91 441.16 115.33 441.70 C 116.86 441.50 118.39 441.16 119.94 441.39 C 150.34 444.44 180.76 447.39 211.15 450.50 C 212.75 451.10 213.90 449.70 215.16 449.03 C 206.09 448.17 197.02 447.33 187.97 446.33 C 187.20 358.52 186.45 270.69 187.48 182.88 C 187.59 137.80 188.74 92.73 189.86 47.66 C 201.87 46.12 214.00 46.14 226.03 44.70 C 233.07 44.86 240.00 43.38 247.04 43.48 C 253.67 42.38 260.42 42.92 267.05 41.76 C 272.06 41.75 277.06 41.35 282.03 40.70 C 287.75 40.97 293.36 39.64 299.06 39.64 C 337.70 36.89 376.33 34.00 415.00 31.41 C 420.42 30.52 425.12 34.29 428.29 38.28 C 429.12 42.87 428.64 47.54 428.93 52.15 C 428.20 61.41 428.62 70.74 428.25 80.02 C 428.18 93.10 427.67 106.21 428.23 119.27 C 427.47 131.36 427.79 143.54 427.83 155.66 C 427.76 155.83 427.62 156.18 427.56 156.35 C 427.26 181.49 426.83 206.65 427.05 231.79 C 426.61 240.63 426.74 249.51 426.80 258.37 C 426.09 266.73 426.60 275.45 426.26 283.94 C 426.06 300.80 425.78 317.69 426.18 334.52 C 425.80 336.66 425.77 338.84 425.80 341.02 C 425.75 371.69 425.17 402.37 425.35 433.05 C 424.54 441.99 425.46 450.96 424.35 459.88 C 423.52 465.61 417.74 469.60 412.07 468.53 C 380.84 465.40 349.58 462.45 318.35 459.24 C 317.55 459.81 316.74 460.40 315.94 460.99 C 320.55 461.20 325.12 461.80 329.72 462.16 C 329.92 462.48 330.34 463.14 330.54 463.47 C 334.82 464.98 339.51 462.72 343.73 464.48 C 348.49 466.54 353.78 465.81 358.82 466.06 C 362.63 468.89 367.56 466.71 371.81 468.11 C 376.12 469.32 380.62 468.56 385.00 469.13 C 390.00 471.65 395.77 470.15 401.09 471.33 C 408.54 471.47 416.64 473.60 423.51 469.69 C 426.94 467.65 431.96 467.60 434.22 464.01 C 437.61 462.88 440.81 461.25 444.21 460.14 C 451.58 457.06 459.10 454.32 466.49 451.26 C 468.00 450.61 469.61 450.20 471.27 450.10 C 474.36 446.42 477.40 442.01 477.28 437.00 C 477.28 419.34 477.21 401.67 477.26 384.00 C 477.26 382.65 477.13 381.31 476.86 379.99 C 477.68 372.02 477.08 363.94 477.15 355.93 C 476.57 352.98 476.52 349.92 477.18 346.99 C 476.56 345.05 476.63 343.02 477.16 341.08 C 477.14 338.97 477.72 336.63 476.45 334.75 L 477.49 334.28 L 476.93 333.02 C 477.40 323.75 476.11 314.37 477.07 305.06 C 476.81 299.38 476.38 293.64 477.11 288.00 C 476.43 284.38 476.89 280.69 476.76 277.05 C 476.78 200.81 476.71 124.57 476.71 48.34 C 475.34 45.86 473.82 43.31 471.35 41.78 C 467.45 38.87 462.39 38.87 457.86 37.66 C 444.85 34.96 431.89 31.95 418.84 29.46 C 342.56 34.98 266.28 40.42 190.00 45.86 M 300.40 161.39 C 288.43 167.86 282.53 182.77 284.82 195.88 C 285.60 201.52 288.37 206.54 290.82 211.56 C 290.80 212.43 290.75 214.15 290.73 215.01 C 292.86 216.31 294.22 218.40 295.72 220.33 C 297.94 223.08 301.45 224.06 304.59 225.35 C 307.84 226.88 311.55 226.23 315.03 226.24 C 322.20 225.05 328.37 220.20 332.09 214.04 C 335.75 210.59 336.91 205.45 339.19 201.11 C 339.29 195.26 340.37 189.38 339.18 183.56 C 337.26 173.85 331.26 164.44 321.92 160.46 C 315.12 157.26 306.94 157.83 300.40 161.39 M 306.89 241.87 C 295.78 244.47 287.08 254.10 284.45 265.04 C 281.90 274.46 283.67 284.97 289.11 293.07 C 292.06 298.20 296.79 301.94 301.18 305.79 C 301.67 306.05 302.67 306.56 303.17 306.82 C 305.28 308.06 307.80 307.54 310.13 307.73 C 311.71 309.08 314.22 308.99 315.85 307.78 C 319.20 308.05 321.94 305.95 325.03 305.07 C 325.22 304.76 325.62 304.14 325.81 303.83 C 330.79 299.81 335.43 295.07 338.19 289.23 C 344.83 275.88 341.98 258.21 330.61 248.31 C 324.22 242.70 315.28 239.88 306.89 241.87 M 294.03 332.06 C 286.15 340.79 283.41 353.64 286.59 364.91 C 287.67 369.29 290.09 373.17 291.47 377.45 L 291.55 377.46 C 294.63 380.71 296.74 384.97 300.74 387.27 C 304.80 389.65 309.18 392.02 314.06 391.29 C 320.82 391.97 326.38 387.28 330.80 382.75 C 333.22 380.07 336.55 377.70 336.90 373.80 L 337.41 373.20 C 337.49 372.84 337.65 372.13 337.73 371.77 L 339.09 372.23 C 339.35 370.12 339.55 368.00 339.77 365.89 C 342.01 360.83 340.64 355.22 340.41 349.92 C 338.80 337.99 330.16 326.45 318.03 323.82 C 309.25 321.77 299.93 325.47 294.03 332.06 M 215.28 450.93 C 231.56 452.61 247.86 453.98 264.14 455.80 C 264.57 455.14 265.00 454.49 265.45 453.85 C 248.93 452.56 232.46 450.75 215.98 449.10 C 214.93 448.93 215.47 450.37 215.28 450.93 M 265.43 454.22 C 265.53 454.76 265.73 455.84 265.83 456.38 C 267.50 455.94 269.23 456.18 270.93 456.33 C 285.60 457.86 300.29 459.24 314.97 460.73 C 315.57 460.14 316.18 459.56 316.80 458.99 C 299.63 457.79 282.59 455.36 265.43 454.22 Z"
              style="fill: rgb(246, 247, 241);"/>
        <path opacity="1.00"
              d=" M 425.21 32.70 C 434.30 34.82 443.47 36.58 452.57 38.64 C 456.94 39.74 461.51 39.55 465.87 40.73 C 467.62 41.55 469.37 42.38 471.05 43.36 C 469.93 44.26 468.64 44.75 467.18 44.85 C 467.71 45.22 468.25 45.59 468.81 45.95 C 468.66 175.97 468.87 305.99 468.77 436.00 C 468.76 437.83 469.09 439.63 469.45 441.42 C 469.10 442.67 468.75 443.91 468.43 445.18 C 467.05 446.68 465.63 448.14 464.14 449.54 C 462.43 449.72 460.79 450.26 459.32 451.14 C 455.07 452.47 451.36 455.30 446.80 455.53 C 444.43 456.91 441.97 458.14 439.58 459.47 C 434.61 460.34 430.38 463.41 425.35 464.18 C 425.20 459.41 426.45 454.74 426.27 449.98 C 426.43 421.33 426.65 392.68 426.59 364.03 C 427.64 354.67 427.09 345.23 427.31 335.82 C 428.16 309.69 427.60 283.53 427.96 257.39 C 428.51 249.14 428.06 240.85 428.36 232.59 C 429.07 206.56 428.68 180.50 428.92 154.46 C 429.53 146.37 429.10 138.24 429.32 130.13 C 430.03 104.59 429.77 79.03 429.86 53.48 C 430.65 48.92 429.53 44.36 429.68 39.78 C 429.86 36.71 427.00 34.79 425.21 32.70 Z"
              style="fill: rgb(246, 247, 241);"/>
        <path opacity="1.00"
              d=" M 97.03 54.02 C 100.97 53.20 105.03 53.99 108.98 53.21 C 111.29 52.71 113.65 52.54 116.01 52.58 C 115.98 108.37 114.98 164.16 115.04 219.95 C 114.99 293.13 114.17 366.30 114.09 439.47 C 109.22 438.00 104.06 438.81 99.13 437.68 C 93.42 437.57 87.82 436.13 82.09 436.36 C 80.10 435.16 78.36 433.62 76.79 431.92 C 76.19 429.96 75.42 428.00 75.38 425.93 C 74.84 415.95 75.69 405.91 74.62 395.97 C 74.76 373.32 74.39 350.68 74.16 328.03 C 74.05 325.03 73.46 322.06 73.60 319.05 C 73.75 306.38 73.40 293.71 73.29 281.04 C 73.21 275.68 73.43 270.30 72.65 264.98 C 72.57 231.65 72.66 198.31 72.60 164.98 C 73.50 152.36 73.60 139.68 73.64 127.03 C 74.71 118.70 74.34 110.27 74.73 101.90 C 75.70 95.95 75.49 89.91 75.72 83.91 C 76.47 78.95 76.65 73.93 76.61 68.92 C 76.27 63.13 79.56 56.90 85.09 54.73 C 89.07 54.47 93.09 54.78 97.03 54.02 Z"
              style="fill: rgb(246, 247, 241);"/>
        <path opacity="1.00"
              d=" M 166.03 55.99 C 172.53 54.95 179.09 53.90 185.70 54.36 L 186.48 54.39 C 186.29 61.27 186.97 68.23 185.81 75.05 C 185.41 83.65 185.54 92.27 185.37 100.88 C 184.35 106.18 184.85 111.61 184.65 116.97 C 184.33 131.66 184.52 146.36 184.43 161.05 C 182.93 167.64 185.62 174.31 183.92 180.90 C 183.15 183.37 184.81 186.78 182.92 188.70 C 178.10 188.97 173.28 188.68 168.46 188.79 C 168.46 189.66 168.45 191.39 168.45 192.25 C 170.32 192.25 172.20 192.25 174.07 192.25 L 175.07 191.55 C 177.85 191.98 181.99 190.27 183.68 193.20 C 183.87 213.48 183.66 233.78 183.79 254.06 C 183.51 258.23 184.69 262.30 184.53 266.47 C 179.22 266.93 173.88 266.66 168.56 266.62 C 167.91 267.61 166.37 269.31 167.94 270.26 C 173.45 270.66 178.98 270.11 184.49 270.54 C 184.26 294.62 184.78 318.71 184.24 342.77 C 179.05 342.70 173.87 342.83 168.68 342.66 C 168.27 343.88 167.91 345.12 167.61 346.39 C 173.19 345.82 178.77 348.36 184.23 346.39 C 184.76 350.54 184.37 354.75 184.51 358.93 C 184.46 384.50 184.95 410.09 184.49 435.64 C 184.43 435.97 184.33 436.62 184.28 436.95 C 177.83 436.29 171.52 434.26 164.98 434.70 C 154.96 434.26 145.12 431.43 135.05 431.70 C 129.93 431.65 125.00 429.99 119.91 429.68 C 119.13 429.70 117.59 429.73 116.81 429.75 C 116.20 419.53 116.72 409.27 116.55 399.03 C 116.75 391.68 116.02 384.27 117.15 376.97 C 117.28 312.62 117.65 248.28 117.54 183.93 C 117.67 177.95 117.14 171.93 118.16 166.01 C 118.24 143.68 118.26 121.34 118.39 99.00 C 118.77 85.42 118.10 71.78 118.87 58.23 C 126.99 58.96 134.97 57.32 143.05 57.01 C 150.64 55.59 158.40 56.94 166.03 55.99 Z"
              style="fill: rgb(246, 247, 241);"/>
        <path opacity="1.00"
              d=" M 293.20 251.21 C 298.34 245.34 306.28 242.49 313.96 242.86 C 316.28 243.21 318.61 243.55 320.95 243.83 C 327.36 246.68 333.11 251.32 336.39 257.61 C 339.05 262.26 340.04 267.66 340.33 272.96 C 339.40 283.52 333.26 293.14 324.84 299.42 C 321.50 300.43 318.61 302.94 314.95 302.68 C 307.99 303.45 300.93 301.59 295.32 297.40 C 281.96 286.13 281.08 263.68 293.20 251.21 Z"
              style="fill: rgb(246, 247, 241);"/>
        <path opacity="1.00"
              d=" M 304.93 325.85 C 312.76 323.47 321.61 324.69 327.98 330.02 C 341.91 340.79 343.14 363.54 331.29 376.29 C 326.90 381.08 320.77 385.12 314.01 384.69 C 304.83 385.71 296.08 380.03 291.38 372.41 C 286.41 364.27 285.49 354.17 287.87 345.03 C 290.58 336.58 296.66 329.31 304.93 325.85 M 300.50 353.08 C 300.66 354.20 300.84 355.32 301.05 356.44 C 303.28 355.51 302.81 353.28 300.50 353.08 M 318.49 354.48 C 318.52 355.00 318.57 356.02 318.60 356.53 C 319.08 356.54 320.06 356.55 320.54 356.56 C 320.52 356.05 320.48 355.03 320.46 354.52 C 319.97 354.51 318.98 354.49 318.49 354.48 Z"
              style="fill: rgb(246, 247, 241);"/>
    </g>
    <g id="#000000ff">
        <path fill="#000000" opacity="1.00"
              d=" M 190.00 45.86 C 266.28 40.42 342.56 34.98 418.84 29.46 C 431.89 31.95 444.85 34.96 457.86 37.66 C 462.39 38.87 467.45 38.87 471.35 41.78 C 473.82 43.31 475.34 45.86 476.71 48.34 C 476.71 124.57 476.78 200.81 476.76 277.05 C 476.89 280.69 476.43 284.38 477.11 288.00 C 476.38 293.64 476.81 299.38 477.07 305.06 C 476.11 314.37 477.40 323.75 476.93 333.02 L 477.49 334.28 L 476.45 334.75 C 477.72 336.63 477.14 338.97 477.16 341.08 C 476.63 343.02 476.56 345.05 477.18 346.99 C 476.52 349.92 476.57 352.98 477.15 355.93 C 477.08 363.94 477.68 372.02 476.86 379.99 C 477.13 381.31 477.26 382.65 477.26 384.00 C 477.21 401.67 477.28 419.34 477.28 437.00 C 477.40 442.01 474.36 446.42 471.27 450.10 C 469.61 450.20 468.00 450.61 466.49 451.26 C 459.10 454.32 451.58 457.06 444.21 460.14 C 440.81 461.25 437.61 462.88 434.22 464.01 C 427.73 465.90 421.74 469.65 415.02 470.57 C 386.58 467.78 358.16 464.84 329.72 462.16 C 325.12 461.80 320.55 461.20 315.94 460.99 C 316.74 460.40 317.55 459.81 318.35 459.24 C 349.58 462.45 380.84 465.40 412.07 468.53 C 417.74 469.60 423.52 465.61 424.35 459.88 C 425.46 450.96 424.54 441.99 425.35 433.05 C 425.17 402.37 425.75 371.69 425.80 341.02 C 425.77 338.84 425.80 336.66 426.18 334.52 L 427.31 335.82 C 427.09 345.23 427.64 354.67 426.59 364.03 C 426.65 392.68 426.43 421.33 426.27 449.98 C 426.45 454.74 425.20 459.41 425.35 464.18 C 430.38 463.41 434.61 460.34 439.58 459.47 C 441.97 458.14 444.43 456.91 446.80 455.53 C 451.36 455.30 455.07 452.47 459.32 451.14 C 463.55 450.88 467.28 448.72 471.30 447.60 C 470.76 447.31 469.68 446.73 469.15 446.44 C 471.38 443.27 474.74 440.28 474.39 436.03 C 474.36 328.70 474.39 221.37 474.41 114.03 C 474.42 92.67 474.33 71.31 474.53 49.95 C 474.07 47.44 472.83 45.17 471.05 43.36 C 469.37 42.38 467.62 41.55 465.87 40.73 C 461.51 39.55 456.94 39.74 452.57 38.64 C 443.47 36.58 434.30 34.82 425.21 32.70 C 427.00 34.79 429.86 36.71 429.68 39.78 C 429.53 44.36 430.65 48.92 429.86 53.48 C 429.63 53.15 429.16 52.48 428.93 52.15 C 428.64 47.54 429.12 42.87 428.29 38.28 C 425.12 34.29 420.42 30.52 415.00 31.41 C 376.33 34.00 337.70 36.89 299.06 39.64 C 293.36 39.64 287.75 40.97 282.03 40.70 C 277.06 41.35 272.06 41.75 267.05 41.76 C 260.42 42.92 253.67 42.38 247.04 43.48 C 240.00 43.38 233.07 44.86 226.03 44.70 C 214.00 46.14 201.87 46.12 189.86 47.66 C 188.74 92.73 187.59 137.80 187.48 182.88 C 186.45 270.69 187.20 358.52 187.97 446.33 C 197.02 447.33 206.09 448.17 215.16 449.03 C 213.90 449.70 212.75 451.10 211.15 450.50 C 180.76 447.39 150.34 444.44 119.94 441.39 C 118.39 441.16 116.86 441.50 115.33 441.70 C 113.91 441.16 112.51 440.52 110.97 440.49 C 101.09 439.57 91.22 438.37 81.32 437.68 C 76.53 435.26 73.74 430.15 73.41 424.90 C 73.31 365.26 71.59 305.64 71.18 246.01 C 71.20 223.34 70.35 200.66 71.22 178.01 C 71.43 145.64 72.53 113.27 74.58 80.97 C 74.81 75.40 75.44 69.86 75.38 64.29 C 76.58 59.81 79.48 56.05 83.23 53.39 C 91.54 53.11 99.83 52.23 108.13 51.75 C 111.58 51.40 115.23 51.75 118.41 50.13 C 119.85 50.62 121.37 50.91 122.90 50.68 C 143.61 49.18 164.33 47.71 185.03 46.22 C 186.80 46.39 186.95 44.19 187.22 42.99 C 187.91 42.98 189.29 42.98 189.98 42.98 C 189.98 43.70 189.99 45.14 190.00 45.86 M 129.97 52.05 C 126.41 52.30 122.77 52.25 119.29 53.12 L 118.83 54.45 C 118.87 55.71 118.88 56.97 118.87 58.23 C 118.10 71.78 118.77 85.42 118.39 99.00 C 118.26 121.34 118.24 143.68 118.16 166.01 C 117.14 171.93 117.67 177.95 117.54 183.93 C 117.65 248.28 117.28 312.62 117.15 376.97 C 116.02 384.27 116.75 391.68 116.55 399.03 C 116.72 409.27 116.20 419.53 116.81 429.75 C 117.01 433.03 116.36 436.46 117.43 439.64 C 119.86 440.49 122.51 439.96 125.03 440.20 C 134.30 441.56 143.73 441.42 152.92 443.16 C 163.61 443.08 174.26 444.49 184.83 445.93 C 184.91 442.50 184.94 439.05 184.49 435.64 C 184.95 410.09 184.46 384.50 184.51 358.93 C 184.37 354.75 184.76 350.54 184.23 346.39 C 178.77 348.36 173.19 345.82 167.61 346.39 C 167.91 345.12 168.27 343.88 168.68 342.66 C 173.87 342.83 179.05 342.70 184.24 342.77 C 184.78 318.71 184.26 294.62 184.49 270.54 C 178.98 270.11 173.45 270.66 167.94 270.26 C 166.37 269.31 167.91 267.61 168.56 266.62 C 173.88 266.66 179.22 266.93 184.53 266.47 C 184.69 262.30 183.51 258.23 183.79 254.06 C 183.66 233.78 183.87 213.48 183.68 193.20 C 181.99 190.27 177.85 191.98 175.07 191.55 L 174.07 192.25 C 172.20 192.25 170.32 192.25 168.45 192.25 C 168.45 191.39 168.46 189.66 168.46 188.79 C 173.28 188.68 178.10 188.97 182.92 188.70 C 184.81 186.78 183.15 183.37 183.92 180.90 C 185.62 174.31 182.93 167.64 184.43 161.05 C 184.52 146.36 184.33 131.66 184.65 116.97 C 184.85 111.61 184.35 106.18 185.37 100.88 C 185.54 92.27 185.41 83.65 185.81 75.05 C 186.97 68.23 186.29 61.27 186.48 54.39 L 185.70 54.36 C 185.79 53.58 185.96 52.01 186.04 51.23 C 186.17 50.40 186.44 48.73 186.58 47.90 C 167.71 49.38 148.84 50.66 129.97 52.05 M 97.03 54.02 C 93.09 54.78 89.07 54.47 85.09 54.73 C 79.56 56.90 76.27 63.13 76.61 68.92 C 76.65 73.93 76.47 78.95 75.72 83.91 C 75.49 89.91 75.70 95.95 74.73 101.90 C 74.34 110.27 74.71 118.70 73.64 127.03 C 73.60 139.68 73.50 152.36 72.60 164.98 C 72.66 198.31 72.57 231.65 72.65 264.98 C 73.43 270.30 73.21 275.68 73.29 281.04 C 73.40 293.71 73.75 306.38 73.60 319.05 C 73.46 322.06 74.05 325.03 74.16 328.03 C 74.39 350.68 74.76 373.32 74.62 395.97 C 75.69 405.91 74.84 415.95 75.38 425.93 C 75.42 428.00 76.19 429.96 76.79 431.92 C 78.36 433.62 80.10 435.16 82.09 436.36 C 87.82 436.13 93.42 437.57 99.13 437.68 C 104.06 438.81 109.22 438.00 114.09 439.47 C 114.17 366.30 114.99 293.13 115.04 219.95 C 114.98 164.16 115.98 108.37 116.01 52.58 C 113.65 52.54 111.29 52.71 108.98 53.21 C 105.03 53.99 100.97 53.20 97.03 54.02 Z"/>
        <path fill="#000000" opacity="1.00"
              d=" M 265.43 454.22 C 282.59 455.36 299.63 457.79 316.80 458.99 C 316.18 459.56 315.57 460.14 314.97 460.73 C 300.29 459.24 285.60 457.86 270.93 456.33 C 269.23 456.18 267.50 455.94 265.83 456.38 C 265.73 455.84 265.53 454.76 265.43 454.22 Z"/>
    </g>
    <g id="#707070ff">
        <path fill="#707070" opacity="1.00"
              d=" M 471.05 43.36 C 472.83 45.17 474.07 47.44 474.53 49.95 C 473.17 49.35 471.81 48.75 470.45 48.16 C 470.33 47.13 470.22 46.10 470.12 45.08 C 469.79 45.30 469.13 45.73 468.81 45.95 C 468.25 45.59 467.71 45.22 467.18 44.85 C 468.64 44.75 469.93 44.26 471.05 43.36 Z"/>
    </g>
    <g id="#252525ff">
        <path fill="#252525" opacity="1.00"
              d=" M 468.81 45.95 C 469.13 45.73 469.79 45.30 470.12 45.08 C 470.22 46.10 470.33 47.13 470.45 48.16 C 471.81 48.75 473.17 49.35 474.53 49.95 C 474.33 71.31 474.42 92.67 474.41 114.03 C 474.39 221.37 474.36 328.70 474.39 436.03 C 474.74 440.28 471.38 443.27 469.15 446.44 C 469.68 446.73 470.76 447.31 471.30 447.60 C 467.28 448.72 463.55 450.88 459.32 451.14 C 460.79 450.26 462.43 449.72 464.14 449.54 C 465.63 448.14 467.05 446.68 468.43 445.18 C 468.75 443.91 469.10 442.67 469.45 441.42 C 469.09 439.63 468.76 437.83 468.77 436.00 C 468.87 305.99 468.66 175.97 468.81 45.95 Z"/>
    </g>
    <g id="#686868ff">
        <path fill="#686868" opacity="1.00"
              d=" M 129.97 52.05 C 148.84 50.66 167.71 49.38 186.58 47.90 C 186.44 48.73 186.17 50.40 186.04 51.23 C 174.03 51.43 162.05 52.59 150.04 52.47 C 145.95 52.53 142.03 53.93 137.95 54.10 C 131.59 54.45 125.20 54.68 118.83 54.45 L 119.29 53.12 C 122.77 52.25 126.41 52.30 129.97 52.05 Z"/>
        <path fill="#686868" opacity="1.00"
              d=" M 337.73 371.77 C 338.21 369.75 338.94 367.79 339.77 365.89 C 339.55 368.00 339.35 370.12 339.09 372.23 L 337.73 371.77 Z"/>
    </g>
    <g id="#3b3b3bff">
        <path fill="#3b3b3b" opacity="1.00"
              d=" M 150.04 52.47 C 162.05 52.59 174.03 51.43 186.04 51.23 C 185.96 52.01 185.79 53.58 185.70 54.36 C 179.09 53.90 172.53 54.95 166.03 55.99 C 158.40 56.94 150.64 55.59 143.05 57.01 C 134.97 57.32 126.99 58.96 118.87 58.23 C 118.88 56.97 118.87 55.71 118.83 54.45 C 125.20 54.68 131.59 54.45 137.95 54.10 C 142.03 53.93 145.95 52.53 150.04 52.47 Z"/>
    </g>
    <g id="#515151ff">
        <path fill="#515151" opacity="1.00"
              d=" M 428.93 52.15 C 429.16 52.48 429.63 53.15 429.86 53.48 C 429.77 79.03 430.03 104.59 429.32 130.13 C 429.39 126.48 429.14 122.82 428.23 119.27 C 427.67 106.21 428.18 93.10 428.25 80.02 C 428.62 70.74 428.20 61.41 428.93 52.15 Z"/>
        <path fill="#515151" opacity="1.00"
              d=" M 427.83 155.66 L 428.92 154.46 C 428.68 180.50 429.07 206.56 428.36 232.59 L 427.05 231.79 C 426.83 206.65 427.26 181.49 427.56 156.35 C 427.62 156.18 427.76 155.83 427.83 155.66 Z"/>
        <path fill="#515151" opacity="1.00"
              d=" M 426.26 283.94 C 426.60 275.45 426.09 266.73 426.80 258.37 L 427.96 257.39 C 427.60 283.53 428.16 309.69 427.31 335.82 L 426.18 334.52 C 425.78 317.69 426.06 300.80 426.26 283.94 Z"/>
        <path fill="#515151" opacity="1.00"
              d=" M 300.50 353.08 C 302.81 353.28 303.28 355.51 301.05 356.44 C 300.84 355.32 300.66 354.20 300.50 353.08 Z"/>
        <path fill="#515151" opacity="1.00"
              d=" M 318.49 354.48 C 318.98 354.49 319.97 354.51 320.46 354.52 C 320.48 355.03 320.52 356.05 320.54 356.56 C 320.06 356.55 319.08 356.54 318.60 356.53 C 318.57 356.02 318.52 355.00 318.49 354.48 Z"/>
        <path fill="#515151" opacity="1.00"
              d=" M 314.02 387.44 C 323.54 387.48 331.46 381.06 336.90 373.80 C 336.55 377.70 333.22 380.07 330.80 382.75 C 326.38 387.28 320.82 391.97 314.06 391.29 C 309.18 392.02 304.80 389.65 300.74 387.27 C 296.74 384.97 294.63 380.71 291.55 377.46 C 291.87 377.48 292.51 377.52 292.83 377.54 C 298.26 383.40 305.77 387.96 314.02 387.44 Z"/>
    </g>
    <g id="#020202ff">
        <path fill="#020202" opacity="1.00"
              d=" M 428.23 119.27 C 429.14 122.82 429.39 126.48 429.32 130.13 C 429.10 138.24 429.53 146.37 428.92 154.46 L 427.83 155.66 C 427.79 143.54 427.47 131.36 428.23 119.27 Z"/>
        <path fill="#020202" opacity="1.00"
              d=" M 300.40 161.39 C 306.94 157.83 315.12 157.26 321.92 160.46 C 331.26 164.44 337.26 173.85 339.18 183.56 C 340.37 189.38 339.29 195.26 339.19 201.11 C 336.91 205.45 335.75 210.59 332.09 214.04 C 328.41 216.91 324.74 219.90 320.41 221.74 C 315.98 222.06 311.47 222.57 307.07 221.68 C 303.00 220.84 299.41 218.64 295.88 216.55 C 294.28 214.80 292.53 213.21 290.82 211.56 C 288.37 206.54 285.60 201.52 284.82 195.88 C 282.53 182.77 288.43 167.86 300.40 161.39 M 306.89 160.27 C 299.90 161.62 294.14 166.62 290.36 172.48 C 285.44 180.69 284.51 190.83 286.93 200.01 C 288.27 202.95 289.28 206.09 291.21 208.72 C 295.98 215.78 304.36 220.83 313.03 220.03 C 320.69 219.66 327.40 214.77 331.94 208.86 C 338.19 200.78 339.70 189.76 337.09 180.02 C 335.32 174.93 332.64 170.06 328.59 166.42 C 322.90 161.11 314.55 158.43 306.89 160.27 Z"/>
        <path fill="#020202" opacity="1.00"
              d=" M 427.05 231.79 L 428.36 232.59 C 428.06 240.85 428.51 249.14 427.96 257.39 L 426.80 258.37 C 426.74 249.51 426.61 240.63 427.05 231.79 Z"/>
        <path fill="#020202" opacity="1.00"
              d=" M 294.03 332.06 C 299.93 325.47 309.25 321.77 318.03 323.82 C 330.16 326.45 338.80 337.99 340.41 349.92 C 340.64 355.22 342.01 360.83 339.77 365.89 C 338.94 367.79 338.21 369.75 337.73 371.77 C 337.65 372.13 337.49 372.84 337.41 373.20 L 336.90 373.80 C 331.46 381.06 323.54 387.48 314.02 387.44 C 305.77 387.96 298.26 383.40 292.83 377.54 C 292.51 377.52 291.87 377.48 291.55 377.46 L 291.47 377.45 C 290.09 373.17 287.67 369.29 286.59 364.91 C 283.41 353.64 286.15 340.79 294.03 332.06 M 304.93 325.85 C 296.66 329.31 290.58 336.58 287.87 345.03 C 285.49 354.17 286.41 364.27 291.38 372.41 C 296.08 380.03 304.83 385.71 314.01 384.69 C 320.77 385.12 326.90 381.08 331.29 376.29 C 343.14 363.54 341.91 340.79 327.98 330.02 C 321.61 324.69 312.76 323.47 304.93 325.85 Z"/>
    </g>
    <g id="#fdfffcff">
        <path opacity="1.00"
              d=" M 306.89 160.27 C 314.55 158.43 322.90 161.11 328.59 166.42 C 332.64 170.06 335.32 174.93 337.09 180.02 C 339.70 189.76 338.19 200.78 331.94 208.86 C 327.40 214.77 320.69 219.66 313.03 220.03 C 304.36 220.83 295.98 215.78 291.21 208.72 C 289.28 206.09 288.27 202.95 286.93 200.01 C 284.51 190.83 285.44 180.69 290.36 172.48 C 294.14 166.62 299.90 161.62 306.89 160.27 Z"
              style="fill: rgb(246, 247, 241);"/>
    </g>
    <g id="#5d5d5dff">
        <path fill="#5d5d5d" opacity="1.00"
              d=" M 290.82 211.56 C 292.53 213.21 294.28 214.80 295.88 216.55 C 297.04 221.42 302.59 223.27 306.89 224.40 C 311.39 224.85 317.04 225.37 320.41 221.74 C 324.74 219.90 328.41 216.91 332.09 214.04 C 328.37 220.20 322.20 225.05 315.03 226.24 C 311.55 226.23 307.84 226.88 304.59 225.35 C 301.45 224.06 297.94 223.08 295.72 220.33 C 294.22 218.40 292.86 216.31 290.73 215.01 C 290.75 214.15 290.80 212.43 290.82 211.56 Z"/>
    </g>
    <g id="#373737ff">
        <path fill="#373737" opacity="1.00"
              d=" M 295.88 216.55 C 299.41 218.64 303.00 220.84 307.07 221.68 C 311.47 222.57 315.98 222.06 320.41 221.74 C 317.04 225.37 311.39 224.85 306.89 224.40 C 302.59 223.27 297.04 221.42 295.88 216.55 Z"/>
    </g>
    <g id="#090909ff">
        <path fill="#090909" opacity="1.00"
              d=" M 306.89 241.87 C 315.28 239.88 324.22 242.70 330.61 248.31 C 341.98 258.21 344.83 275.88 338.19 289.23 C 335.43 295.07 330.79 299.81 325.81 303.83 C 325.62 304.14 325.22 304.76 325.03 305.07 C 321.94 305.95 319.20 308.05 315.85 307.78 C 314.22 308.99 311.71 309.08 310.13 307.73 C 307.80 307.54 305.28 308.06 303.17 306.82 C 302.67 306.56 301.67 306.05 301.18 305.79 C 296.79 301.94 292.06 298.20 289.11 293.07 C 283.67 284.97 281.90 274.46 284.45 265.04 C 287.08 254.10 295.78 244.47 306.89 241.87 M 293.20 251.21 C 281.08 263.68 281.96 286.13 295.32 297.40 C 300.93 301.59 307.99 303.45 314.95 302.68 C 318.61 302.94 321.50 300.43 324.84 299.42 C 333.26 293.14 339.40 283.52 340.33 272.96 C 340.04 267.66 339.05 262.26 336.39 257.61 C 333.11 251.32 327.36 246.68 320.95 243.83 C 318.61 243.55 316.28 243.21 313.96 242.86 C 306.28 242.49 298.34 245.34 293.20 251.21 Z"/>
    </g>
    <g id="#1e1e1eff">
        <path fill="#1e1e1e" opacity="1.00"
              d=" M 116.81 429.75 C 117.59 429.73 119.13 429.70 119.91 429.68 C 120.63 431.82 120.69 435.63 123.89 435.31 C 128.91 435.49 133.93 436.96 138.95 435.89 C 143.99 434.81 149.03 436.20 154.08 436.35 C 159.50 436.45 164.85 437.84 170.29 437.28 C 170.38 437.69 170.55 438.50 170.63 438.90 C 174.25 439.12 177.86 438.58 181.47 438.58 C 182.63 439.22 182.99 440.68 183.76 441.70 C 183.88 440.10 184.05 438.51 184.28 436.95 C 184.33 436.62 184.43 435.97 184.49 435.64 C 184.94 439.05 184.91 442.50 184.83 445.93 C 174.26 444.49 163.61 443.08 152.92 443.16 C 143.73 441.42 134.30 441.56 125.03 440.20 C 122.51 439.96 119.86 440.49 117.43 439.64 C 116.36 436.46 117.01 433.03 116.81 429.75 Z"/>
    </g>
    <g id="#353535ff">
        <path fill="#353535" opacity="1.00"
              d=" M 119.91 429.68 C 125.00 429.99 129.93 431.65 135.05 431.70 C 145.12 431.43 154.96 434.26 164.98 434.70 C 171.52 434.26 177.83 436.29 184.28 436.95 C 184.05 438.51 183.88 440.10 183.76 441.70 C 182.99 440.68 182.63 439.22 181.47 438.58 C 177.86 438.58 174.25 439.12 170.63 438.90 C 170.55 438.50 170.38 437.69 170.29 437.28 C 164.85 437.84 159.50 436.45 154.08 436.35 C 149.03 436.20 143.99 434.81 138.95 435.89 C 133.93 436.96 128.91 435.49 123.89 435.31 C 120.69 435.63 120.63 431.82 119.91 429.68 Z"/>
    </g>
    <g id="#070707ff">
        <path fill="#070707" opacity="1.00"
              d=" M 215.28 450.93 C 215.47 450.37 214.93 448.93 215.98 449.10 C 232.46 450.75 248.93 452.56 265.45 453.85 C 265.00 454.49 264.57 455.14 264.14 455.80 C 247.86 453.98 231.56 452.61 215.28 450.93 Z"/>
    </g>
    <g id="#d4d4d4ff">
        <path fill="#d4d4d4" opacity="1.00"
              d=" M 329.72 462.16 C 358.16 464.84 386.58 467.78 415.02 470.57 C 421.74 469.65 427.73 465.90 434.22 464.01 C 431.96 467.60 426.94 467.65 423.51 469.69 C 416.64 473.60 408.54 471.47 401.09 471.33 C 395.77 470.15 390.00 471.65 385.00 469.13 C 380.62 468.56 376.12 469.32 371.81 468.11 C 367.56 466.71 362.63 468.89 358.82 466.06 C 353.78 465.81 348.49 466.54 343.73 464.48 C 339.51 462.72 334.82 464.98 330.54 463.47 C 330.34 463.14 329.92 462.48 329.72 462.16 Z"/>
    </g>
</svg>
