<svg id="Layer_1" data-name="Layer 1" xmlns="http://www.w3.org/2000/svg" viewBox="0 0 960 960"><path d="M890.3,5H69.71C42.33,5,20.05,28,20.05,56.28V903.71C20.05,932,42.33,955,69.71,955H890.29c27.38,0,49.66-23,49.66-51.29V56.27C940,28,917.69,5,890.3,5Zm41,898.7c0,23.33-18.4,42.32-41,42.32H69.71c-22.59,0-41-19-41-42.32V56.27c0-23.34,18.38-42.32,41-42.32H890.29c22.59,0,41,19,41,42.32l0,847.43ZM480,150.73c-198.52,0-360,166.79-360,371.8S281.49,894.34,480,894.34,840,727.55,840,522.53,678.54,150.73,480,150.73Zm0,734.67c-193.74,0-351.35-162.77-351.35-362.84S286.28,159.72,480,159.72,831.36,322.5,831.36,522.56,673.74,885.4,480,885.4Zm0-817.55c-13.23,0-23.95,11.07-23.95,24.73S466.78,117.3,480,117.3,504,106.24,504,92.58,493.23,67.85,480,67.85Zm6.54,139.06c.14,3.29.29,65.87.29,66.47a25.84,25.84,0,0,1,0,3.71c-.68,5.23-4.78,9.06-9.54,9.06H477a7.39,7.39,0,0,1-4.48-1.23c-5.34-2.89-5.25-9.2-5.21-12.58,0-.64-.18-61.62-.18-61.62-.24-8.69,2.75-13.35,8.89-13.73h.24l3.62.48A10.11,10.11,0,0,1,486.55,206.91Zm38.05-3c2.52,2.94,1.92,7.06,1.54,9.8l-3.75,29.13c-1,8.39-5.75,9.68-8.5,9.73h-.24a8.45,8.45,0,0,1-6.3-2.91c-2.69-3.3-2.11-7.22-1.78-9.31l3.62-28.59c.26-2.92.85-9.29,6.84-10.77l2.06-.25A7.79,7.79,0,0,1,524.6,204Zm-76.44,35.13c.53,3,1.27,7.12-1.46,10.53a8.34,8.34,0,0,1-6.5,3H440c-3.37-.12-7.49-1.85-8.46-9.44-1.34-9.86-2.61-19.37-3.83-28.79-1.91-10.14,3.38-12.58,5.74-13.2l2.29-.29c2.95.07,7.8,1.48,8.63,10.05Zm117.36-27.17c2.54,3.55,1.3,7.9.57,10.5l-3.59,13.67c-1.25,4.68-2.51,9.37-3.7,14.09-.71,2.76-2.13,8.31-7.78,9l-1.3.09h-.12a8.07,8.07,0,0,1-6.47-3.34c-2.68-3.89-1.4-8.26-.72-10.6l.35-1.16c1.08-4.33,2.37-9.23,3.67-14.15l3.06-11.55c.59-3,1.88-9.44,8.28-10.12l1.2-.05A7.92,7.92,0,0,1,565.52,211.91Zm-154.3,32.77c.94,2.93,1.67,5.19,1.28,7.6a8.86,8.86,0,0,1-8.44,7.31h-.17c-4.27-.09-7.17-2.94-8.59-8.48l-3.05-11.44c-1.6-6.12-3.21-12.17-4.93-18.43-.49-1.76-1.43-5,.36-8.27a8.46,8.46,0,0,1,5.25-4.05l2.19-.28c3.27.09,7.3,1.75,8.88,9.1ZM606.32,228c.64,3.28-.73,6.15-1.65,8l-10.79,26.54c-1,2.52-3.07,7.73-8.56,8h-.5a8.45,8.45,0,0,1-8.35-7.55c-.36-2.9.78-5.46,1.63-7.31l2.48-5.94c2.72-6.68,5.57-13.59,8.28-20.29,1-2.71,2.52-7.13,7.13-8.23l2-.25A8.61,8.61,0,0,1,606.32,228Zm-230.8,27.35c1.33,2.88,2.6,5.66,1.9,8.86a8.52,8.52,0,0,1-8.31,6.8l-1.75-.23c-4.23-.28-6.15-5.16-7-7.24L348.65,235c-.68-1.66-2.17-5.29-.24-9.05a8.25,8.25,0,0,1,6-4.33l1.4-.14c4.13,0,7.05,2.55,8.81,7.46l1.44,3.52C369.15,240,372.35,247.84,375.52,255.33Zm242.67,31H618a8.47,8.47,0,0,1-8.14-7c-.64-3.74,1.14-6.57,2.28-8.44,5.55-9.7,9.68-17.09,14-24.94,1.26-2.33,3.28-6.06,7.19-7.07l1.94-.21a8.49,8.49,0,0,1,8.33,7c.72,4-1.47,7.29-2.65,9.08L627,279.31C626.13,281.25,623.68,286.27,618.19,286.31Zm-276.32-15c1.2,1.86,2.94,4.53,2.61,7.9a8.61,8.61,0,0,1-8.49,7.89h-.13c-5.18-.12-7.61-4.82-8.51-6.59L312.12,254c-.75-1.3-3.05-5.27-1.14-9.57a8.51,8.51,0,0,1,6.48-4.82l1.33-.09c5.35.07,7.62,4.77,8.47,6.53Zm334.4,6.9-38.75,51.39c-1.54,2.16-3.73,5.25-7.64,5.85l-1.44.11-.69,0a9.36,9.36,0,0,1-6.83-3.42,10,10,0,0,1-2.32-7.62,13.12,13.12,0,0,1,3.29-6.89c12.86-16.86,25.73-33.91,38.84-51.45,1.49-2.16,3.62-5.24,8-5.9l1.4-.08a9.79,9.79,0,0,1,9.54,9.51C679.84,273.8,677.51,276.66,676.27,278.19ZM332.22,318c1.7,2.12,3.89,4.9,3.81,8.73a9.72,9.72,0,0,1-9.7,9.81h-.19c-4.82-.12-7.32-3.6-8.52-5.26-6.12-8.11-12.05-15.78-17.79-23.2-7.14-9.23-14.49-18.81-21.65-28.3-1.69-2.08-4-4.9-3.76-8.9a9.82,9.82,0,0,1,8.47-9.36l1.29-.1c4.92.11,7.72,3.83,8.79,5.24Zm364.9-3.41c-3.71,3.86-7.58,7.84-11.66,11.91-1.81,2-4.44,4.87-8.49,4.87h-.1a8.62,8.62,0,0,1-8.3-8.36c-.13-4.3,2.82-7,4.58-8.65,3.55-3.5,6.54-6.62,9.51-9.65l2.28-2.36c2.55-2.62,5.16-5.29,7.84-7.94,1.81-2.05,3.94-4.48,7.24-5l1.4-.12a8.56,8.56,0,0,1,8.46,8.56c.1,4.64-3.36,7.46-4.83,8.67ZM286,324.1a8.87,8.87,0,0,1-2.52,6.28,8.41,8.41,0,0,1-6,2.61h-.2c-3.72-.07-6.15-2.76-7.75-4.55-6.73-6.79-13.44-13.53-19.91-19.94-2.12-1.87-4.87-4.33-5.1-8.24a8.55,8.55,0,0,1,6-8.9L253,291a9.49,9.49,0,0,1,6.72,3.24c3.88,3.85,7.5,7.47,11,11L281,315.48C283,317.28,285.92,319.93,286,324.1Zm423.4,32.58c-2,1.76-4.45,3.9-7.93,3.9h-.13c-5.09-.5-8.37-4.29-8.3-8.87s3.32-6.93,5.27-8.4l22.24-17.18c2.65-2.18,4.52-3.6,7-4l1.35-.12a8.65,8.65,0,0,1,8.44,8.36c.09,5.14-3.89,7.94-5.58,9.14Zm-447.67-3.15a8.57,8.57,0,0,1-6.91,9.14l-1.49.13h-.1c-3.49-.06-6-2.31-7.39-3.51-5.78-4.5-11-8.39-16.44-12.47l-6-4.46c-2.28-1.62-5.83-4.15-6.09-8.57a8.59,8.59,0,0,1,6.16-9l2.31-.34c3.65.1,6.23,2.3,7.76,3.63l22.13,16.92C258.05,346.63,261.48,348.94,261.72,353.53Zm458.34,23c8-4.5,13.85-7.81,19.79-11.2l2.21-1.28c2.29-1.34,4.16-2.44,6.08-3.38l1.21-.59,2.38-.21a8.66,8.66,0,0,1,8.43,8.75c0,5.6-4.79,8-6.6,8.9-7.3,4.23-13.81,7.93-20.71,11.81l-3.62,2.06c-2.09,1.41-4.42,3-7.34,3h-.16a8.7,8.7,0,0,1-8.32-9C713.43,380.13,718.07,377.59,720.06,376.5Zm-525.23-4a8.63,8.63,0,0,1,6.44-9l2-.24a13.45,13.45,0,0,1,6.93,2.52l6.37,3.59c5.89,3.29,11.95,6.67,18,10,2.52,1.35,7,3.79,7.06,9.1a8.91,8.91,0,0,1-2.42,6.47,8,8,0,0,1-5.76,2.39h-.17c-2.76-.08-5.12-1.43-7.12-2.69-5.37-3.05-10.32-5.77-15.58-8.65l-8.72-4.8C199.52,379.91,195.15,377.73,194.83,372.52Zm552.26,38.06c6.51-2.6,12.85-5.13,19-7.34l1.74-.47a9.49,9.49,0,0,1,1.36-.09,8.42,8.42,0,0,1,8.43,8.69c0,4.17-2.49,7.23-7.5,9l-26.22,10.17a16.14,16.14,0,0,1-6.51,1.81h-.34a8.08,8.08,0,0,1-5.94-2.74,8.92,8.92,0,0,1-2.06-6.72c.45-5.72,5.53-7.5,7.43-8.18Zm-569.26,6.89a8.9,8.9,0,0,1,1.43-6.83,8.3,8.3,0,0,1,5.89-3.49l1.9,0h0a13.61,13.61,0,0,1,4.84,1.46c11.17,4.2,19,7.13,26.47,9.94,2.41.86,7.9,2.82,8,9a8.85,8.85,0,0,1-2.37,6.36,8.25,8.25,0,0,1-6,2.5h-.25a16,16,0,0,1-5.87-1.56c-6.48-2.53-12.48-4.74-18.73-7.06L186,425.1C183.64,424.31,178.79,422.73,177.83,417.47Zm612.63,40.26-.5,4.7c-1.75,5.78-7.58,6.81-10.09,7.25-20.64,4.59-41,8.95-59,12.77a24.18,24.18,0,0,1-5.7.92h-.18a9.52,9.52,0,0,1-9.23-6.94,9.94,9.94,0,0,1,.84-8.11c2.39-4.06,6.92-4.92,9.34-5.38,15.68-3.48,30.65-6.67,45.14-9.74l14.43-3.07a22.72,22.72,0,0,1,5.31-.83,9.42,9.42,0,0,1,9.44,7.52ZM250.18,480.41a9.62,9.62,0,0,1-9.35,7.59h-.14a21.61,21.61,0,0,1-4.25-.63l-.1-6.11-1.13,5.86c-13.25-2.7-26.66-5.35-39.8-8l-18.69-3.69-.28-6.11-.9,5.91c-2.45-.4-8.84-1.44-10.17-8.45l-.12-1.28,5.79-1.26h-5.78l.43-2.47c1.8-4.5,5.1-6.92,9.15-6.92l1.41.09c1.76.18,3.95.64,6.07,1.09l2.64.57c14.07,2.91,29.28,5.9,43.23,8.63l8.93,1.7c2.13.35,4.1.69,6,1.18l2.42,1A10,10,0,0,1,250.18,480.41Z"/></svg>